PathFileType	4	(X/Y/Z)	C:/Users/opensim2020/Desktop/walking_exp_matlab/subject06_walking21_straight_02.trc																																																																																																																																		
DataRate	CameraRate	NumFrames	NumMarkers	Units	OrigDataRate	OrigDataStartFrame	OrigNumFrames																																																																																																																														
100	100	8	44	mm	100	1390	172																																																																																																																														
Frame#	Time	LFHD			RFHD			LBHD			RBHD			C7			T10			CLAV			STRN			RBAK			LSHO			LUPA			LELB			LFRM			LWRA			LWRB			LFIN			RSHO			RUPA			RELB			RFRM			RWRA			RWRB			RFIN			LASI			RASI			LPSI			RPSI			LTHI			LKNE			LTIB			LANK			LHEE			LTOE			RTHI			RKNE			RTIB			RANK			RHEE			RTOE			*39			*40			*41			*42			*43		
		X1	Y1	Z1	X2	Y2	Z2	X3	Y3	Z3	X4	Y4	Z4	X5	Y5	Z5	X6	Y6	Z6	X7	Y7	Z7	X8	Y8	Z8	X9	Y9	Z9	X10	Y10	Z10	X11	Y11	Z11	X12	Y12	Z12	X13	Y13	Z13	X14	Y14	Z14	X15	Y15	Z15	X16	Y16	Z16	X17	Y17	Z17	X18	Y18	Z18	X19	Y19	Z19	X20	Y20	Z20	X21	Y21	Z21	X22	Y22	Z22	X23	Y23	Z23	X24	Y24	Z24	X25	Y25	Z25	X26	Y26	Z26	X27	Y27	Z27	X28	Y28	Z28	X29	Y29	Z29	X30	Y30	Z30	X31	Y31	Z31	X32	Y32	Z32	X33	Y33	Z33	X34	Y34	Z34	X35	Y35	Z35	X36	Y36	Z36	X37	Y37	Z37	X38	Y38	Z38	X39	Y39	Z39	X40	Y40	Z40	X41	Y41	Z41	X42	Y42	Z42	X43	Y43	Z43	X44	Y44	Z44
																																																																																																																																					
130	1.29	250.20143	1641.67566	-1506.09937	242.7946	1628.34143	-1374.46167	116.78779	1586.8418	-1514.06531	111.34627	1579.04041	-1384.94458	113.50089	1426.57703	-1451.32886	86.30178	1096.10828	-1436.48145	225.94991	1352.52502	-1452.7262	271.55679	1179.6084	-1456.39514	48.39799	1255.47729	-1360.78503	161.64439	1377.24292	-1613.99475	118.63132	1177.89209	-1676.80457	84.39113	1070.17688	-1682.45898	66.03042	922.75989	-1708.6333	101.1327	792.81128	-1677.7533	36.39496	807.90015	-1705.74316	48.17237	717.82648	-1711.23669	184.02443	1387.40784	-1290.80725	166.74736	1194.10718	-1189.51477	195.55981	1078.78516	-1170.96436	268.29565	986.8764	-1160.70813	390.88861	910.96838	-1210.33057	351.85855	879.17279	-1165.53027	425.51718	840.61633	-1173.1604	271.87695	946.75934	-1545.31787	263.90363	945.98828	-1326.65125	111.53661	961.37524	-1526.49304	112.3407	967.71155	-1357.79858	284.97702	635.72565	-1617.79126	352.96255	489.47876	-1584.73218	398.19296	240.42325	-1582.06189	457.43448	76.75795	-1544.11206	426.26627	49.73544	-1496.77271	602.95294	91.64165	-1541.78418	164.40346	612.38751	-1290.03662	137.97409	488.00043	-1314.8562	-5.43986	254.90634	-1327.31042	-92.07947	91.65952	-1379.91162	-138.73747	79.17963	-1425.04285	48.4993	35.11558	-1380.24304	146.40099	1678.29871	-1451.27954	NaN	NaN	NaN	NaN	NaN	NaN	NaN	NaN	NaN	NaN	NaN	NaN
131	1.3	264.50861	1639.87744	-1506.2168	257.07388	1626.38757	-1374.60864	131.24336	1584.8125	-1514.42151	125.61751	1576.96777	-1385.47473	127.87737	1424.64197	-1451.8374	101.08318	1093.96936	-1437.28601	240.57689	1350.5802	-1453.05518	286.26041	1177.68079	-1456.52185	62.70702	1253.48083	-1361.39917	176.38358	1375.21008	-1614.56152	131.70914	1176.48901	-1677.32751	96.18855	1069.1543	-1683.05017	76.06079	921.69714	-1708.85168	109.06971	791.66046	-1677.47253	44.80397	807.80048	-1706.62769	55.17256	717.15515	-1710.83496	198.42732	1385.30688	-1291.21875	181.16553	1192.07446	-1189.99719	210.0475	1076.77173	-1171.13562	283.50031	985.56287	-1161.12512	406.74399	911.19873	-1210.7561	368.03436	878.81366	-1166.14807	441.98401	841.32886	-1173.64221	287.35889	944.90955	-1545.28906	278.32819	944.16663	-1326.69751	126.13492	959.43536	-1527.45703	126.79088	965.41626	-1359.10486	300.08948	633.73169	-1618.7135	367.43427	487.63345	-1585.39307	417.9292	239.60632	-1582.4032	481.15402	77.3385	-1544.13574	450.29935	49.47612	-1497	626.41486	96.84354	-1541.24255	177.48753	610.74707	-1289.9104	150.82304	486.22351	-1314.77734	1.84934	256.20468	-1326.5426	-89.69749	95.61857	-1378.40515	-137.16942	84.80869	-1423.15466	48.63647	34.97642	-1380.39954	160.65338	1676.25964	-1451.50305	NaN	NaN	NaN	NaN	NaN	NaN	NaN	NaN	NaN	NaN	NaN	NaN
132	1.31	279.03839	1638.28149	-1506.34766	271.29733	1624.65637	-1374.75159	145.77507	1583.08337	-1514.8739	139.98654	1575.04443	-1385.95911	142.47549	1422.75012	-1452.51062	116.02602	1092.00806	-1438.04712	255.21951	1348.87305	-1453.55396	301.2821	1176.13147	-1456.87659	77.20864	1251.65991	-1362.27563	191.18028	1373.51245	-1615.1781	145.02689	1175.45532	-1678.01465	108.48266	1068.43689	-1683.7124	86.71965	921.40179	-1709.67346	117.34692	791.0274	-1677.18127	54.41706	807.62317	-1707.28711	63.306	716.69189	-1710.56079	212.72928	1383.50293	-1291.73547	195.45096	1190.28943	-1190.60449	224.04794	1075.02612	-1171.45996	298.18188	984.32025	-1161.59021	421.85507	911.11072	-1211.17517	383.37128	878.2525	-1166.75452	457.82669	841.47955	-1174.15796	302.9946	943.40039	-1545.30566	292.92789	942.54126	-1326.75342	143.09439	957.56989	-1529.02734	141.59175	963.27429	-1360.39478	315.86551	632.34338	-1619.27881	382.32095	486.35672	-1585.97156	436.29697	238.79007	-1582.84448	501.77979	77.44726	-1544.12012	470.99136	48.67832	-1497.25537	646.44342	99.58118	-1540.70789	191.63789	609.03802	-1289.91504	164.45473	484.47543	-1314.6001	9.65732	257.98584	-1326.02539	-86.89436	100.2795	-1376.76721	-134.85904	91.1448	-1421.08521	48.94012	34.98831	-1380.45764	175.01559	1674.47876	-1451.80151	NaN	NaN	NaN	NaN	NaN	NaN	NaN	NaN	NaN	NaN	NaN	NaN
133	1.32	293.48279	1636.95605	-1506.42944	285.57162	1623.12292	-1374.92529	160.43611	1581.69299	-1515.43616	154.30077	1573.37793	-1386.51514	156.91199	1421.16003	-1453.25024	131.24062	1090.3396	-1438.87659	269.94583	1347.50549	-1454.12756	316.3685	1174.91077	-1457.21875	91.73803	1249.94507	-1363.29993	206.11188	1372.07068	-1615.71533	158.68822	1174.76123	-1678.82935	121.26909	1067.94434	-1684.50647	98.07787	920.88538	-1710.0896	127.27547	790.54248	-1677.29199	64.50365	807.68512	-1707.97351	72.61752	716.56122	-1710.65906	226.88289	1382.03992	-1292.40747	209.52115	1188.76343	-1191.54102	238.03145	1073.59668	-1172.3125	312.21844	983.16864	-1162.22961	436.33105	910.69507	-1211.53772	397.83423	877.41626	-1167.45825	472.63596	841.3631	-1174.51001	318.84811	942.24518	-1545.35413	307.57803	941.11023	-1326.81067	158.98283	956.11359	-1530.14417	156.63646	961.39209	-1361.59448	332.17334	631.57532	-1619.49561	398.0094	485.69336	-1586.37427	453.37289	237.87193	-1583.4375	518.43304	76.24593	-1544.32813	487.72491	47.39474	-1497.67188	662.94684	99.48556	-1539.87073	206.55331	607.47467	-1289.92383	179.24971	482.84656	-1314.3783	18.45655	260.21109	-1325.35901	-83.41479	105.76859	-1375.17419	-131.76105	98.69252	-1419.29749	49.17667	35.04383	-1380.46667	189.35992	1672.98047	-1452.09778	NaN	NaN	NaN	NaN	NaN	NaN	NaN	NaN	NaN	NaN	NaN	NaN
134	1.33	308.11224	1636.0061	-1506.48901	299.81677	1621.87817	-1375.06213	175.06694	1580.6261	-1516.07239	168.6041	1572.03442	-1387.13367	171.48901	1419.79871	-1454.19287	146.66232	1088.86926	-1439.73193	284.6702	1346.38525	-1454.69128	331.48975	1173.92261	-1457.57385	106.48801	1248.40234	-1364.63281	220.92938	1371.11719	-1616.4751	172.70403	1174.36951	-1679.8031	134.55621	1067.79822	-1685.42383	110.17274	921.12634	-1711.2207	138.03346	790.15204	-1677.64795	76.0842	807.75726	-1708.69128	82.79505	716.47186	-1710.61816	240.96251	1380.88354	-1293.08057	223.24506	1187.61133	-1192.45728	251.60902	1072.43042	-1173.30579	325.8414	982.06104	-1163.0448	449.86307	909.83356	-1212.01758	411.39948	876.24298	-1168.29883	485.93591	840.49591	-1174.98828	335.00772	941.45862	-1545.44604	322.7572	939.96204	-1326.93896	175.03296	955.0799	-1530.98145	172.11194	959.83295	-1362.70801	348.95139	631.26843	-1619.43018	414.64172	485.62659	-1586.55615	468.80869	236.54025	-1584.10486	532.31042	74.57852	-1544.70789	501.0712	45.55072	-1498.57581	676.34534	97.20633	-1538.85437	222.13249	605.97766	-1289.86853	195.11386	481.32071	-1314.08484	27.99482	262.99716	-1324.71814	-79.10123	112.07932	-1373.84119	-127.60466	107.19321	-1417.74072	49.56272	35.09468	-1380.51074	203.7758	1671.82019	-1452.44238	NaN	NaN	NaN	NaN	NaN	NaN	NaN	NaN	NaN	NaN	NaN	NaN
135	1.34	322.66934	1635.25378	-1506.67078	313.95102	1620.85815	-1375.2605	189.77872	1579.9231	-1516.70715	182.84898	1570.99792	-1387.93701	186.07286	1418.5968	-1454.96619	162.30881	1087.65125	-1440.7616	299.46533	1345.56409	-1455.35791	346.98242	1173.34595	-1458.08691	121.19532	1247.0636	-1366.02063	236.011	1370.39734	-1617.24292	187.10677	1174.22888	-1680.87976	148.42993	1067.81433	-1686.39856	123.09663	921.02881	-1711.90881	149.99089	790.04199	-1678.48108	88.18433	808.07947	-1709.6239	93.87461	716.6087	-1710.67834	254.92029	1379.99121	-1293.84497	236.61203	1186.58838	-1193.65234	264.81866	1071.47742	-1174.3761	338.89444	980.94495	-1163.91821	463.01862	908.68799	-1212.37378	424.30963	874.98724	-1168.98682	499.27695	839.49426	-1175.06519	351.71832	940.97015	-1545.72388	338.23425	939.06293	-1327.24414	191.44849	954.35083	-1531.76453	187.96759	958.59021	-1363.79626	366.20627	631.26782	-1619.08154	431.87656	485.80493	-1586.61865	482.65393	234.91435	-1584.67334	543.09784	71.93327	-1544.9845	510.47418	43.98663	-1499.77002	687.12366	92.45272	-1537.9408	238.52214	604.70856	-1289.80969	212.05898	479.69852	-1313.58264	38.57883	266.30185	-1324.20398	-73.68211	119.35293	-1372.97632	-121.97524	116.99336	-1416.84326	50.04805	35.15219	-1380.69153	218.16411	1670.91333	-1452.84863	NaN	NaN	NaN	NaN	NaN	NaN	NaN	NaN	NaN	NaN	NaN	NaN
136	1.35	337.2905	1634.79053	-1506.81628	328.09183	1620.10229	-1375.43384	204.42166	1579.41626	-1517.63867	196.9846	1570.21301	-1388.82397	200.56094	1417.76379	-1456.12451	178.28619	1086.59009	-1441.84412	314.33221	1345.04016	-1456.01489	362.51974	1172.96606	-1458.56201	136.0378	1245.84375	-1367.46313	251.22768	1369.98486	-1618.10815	201.89406	1174.30884	-1682.08899	162.82072	1067.97327	-1687.53003	136.76727	921.31616	-1713.12988	162.83733	790.1391	-1679.64343	101.25007	808.61371	-1710.78796	106.2445	716.99115	-1711.22009	268.83112	1379.34924	-1294.79272	249.83629	1185.93311	-1194.72632	277.86551	1070.67749	-1175.80981	351.42642	979.90509	-1164.85498	475.55478	907.23645	-1212.74866	436.4621	873.54218	-1169.63721	511.48535	837.91296	-1175.26245	368.16269	940.74017	-1546.13855	353.97647	938.42108	-1327.75793	207.78294	954.03003	-1532.74609	203.99486	957.85883	-1364.73523	383.94925	631.61652	-1618.48938	448.7825	485.9462	-1587.20776	495.27313	233.5601	-1584.04285	551.22339	69.77332	-1544.20007	515.69714	46.83548	-1497.78857	696.23761	79.4873	-1538.75891	255.55147	603.42383	-1289.56982	230.78035	477.94318	-1312.69067	50.63791	270.27603	-1324.05688	-67.01936	127.58937	-1372.8219	-114.58798	128.01668	-1416.90039	50.66226	35.29517	-1381.04773	232.57576	1670.30798	-1453.37512	NaN	NaN	NaN	NaN	NaN	NaN	NaN	NaN	NaN	NaN	NaN	NaN
137	1.36	351.93564	1634.97888	-1507.0321	342.15103	1619.96558	-1375.54871	219.23828	1579.30615	-1518.48157	211.16818	1569.83569	-1389.77173	215.0777	1417.34363	-1457.24536	194.23439	1086.0293	-1443.10425	329.23523	1345.07788	-1456.71936	378.03098	1173.13135	-1459.0907	150.73888	1244.97192	-1369.26978	266.59848	1369.96448	-1619.07373	217.17776	1174.55225	-1683.32458	177.80077	1068.24512	-1688.70898	151.27751	921.73535	-1714.37061	177.13477	790.46173	-1680.95801	115.21987	809.17761	-1712.06653	119.89279	717.60376	-1712.06885	282.72797	1379.09814	-1295.59143	262.88675	1185.34094	-1196.09973	290.48904	1070.05322	-1177.11621	363.49973	978.77411	-1165.91174	487.67917	905.48431	-1213.10999	447.86652	871.86639	-1170.2655	522.83813	835.83917	-1175.42896	384.01352	940.80359	-1546.36987	369.86499	938.04498	-1328.62329	223.95392	954.34973	-1533.68262	220.25516	957.44983	-1365.68994	401.59042	632.65192	-1618.14709	465.21973	486.5148	-1588.78113	507.48538	233.60388	-1583.19629	555.18634	69.2551	-1544.91907	518.31555	49.5633	-1498.17273	701.17175	66.01492	-1538.16272	273.53616	602.00952	-1289.32544	250.73228	476.05441	-1311.48389	64.43842	274.61563	-1324.25488	-58.43161	136.74213	-1373.15698	-104.81211	140.17108	-1417.65637	52.22151	35.85726	-1381.51843	246.92007	1670.12964	-1453.92163	NaN	NaN	NaN	NaN	NaN	NaN	NaN	NaN	NaN	NaN	NaN	NaN
